# xmcd
#
# Track frame offsets: 
#        150
#        14429
#        34657
#        51869
#        71753
#        85918
#        101044
#        118730
#        133776
#        150295
#        169444
#        189415
#
# Disc length: 2771 seconds
#
# Revision: 0
# Processed by: cddbd v1.5.2PL0 Copyright (c) Steve Scherf et al.
# Submitted via: ExactAudioCopy v0.99pb4
#
DISCID=a10ad10c
DTITLE=Chatham County Line - Wildwood
DYEAR=2010
DGENRE=Bluegrass
TTITLE0=Wildwood
TTITLE1=Alone In New Yourk
TTITLE2=Saturdays and Sundays
TTITLE3=Crop Comes In
TTITLE4=Porcelain Doll
TTITLE5=Out Of The Running
TTITLE6=Heart Attack
TTITLE7=Ghost Of Woody Guthrie
TTITLE8=Honeymoon
TTITLE9=Ringing In My Ears
TTITLE10=Blue Jay Way
TTITLE11=End Of The Line
EXTD=
EXTT0=
EXTT1=
EXTT2=
EXTT3=
EXTT4=
EXTT5=
EXTT6=
EXTT7=
EXTT8=
EXTT9=
EXTT10=
EXTT11=
PLAYORDER=
